<?xml version="1.0"?>
<svg version="1.1" xmlns="http://www.w3.org/2000/svg" width="200" height="100" ><path fill="#ffffff" d="M16.23046875,53.359375q0-1.2890625,0.107421875-2.822265625t0.380859375-3.076171875t0.8203125-2.978515625t1.40625-2.55859375t2.099609375-1.787109375t2.958984375-0.6640625q1.3671875,0,2.51953125,0.52734375t2.01171875,1.42578125t1.337890625,2.099609375t0.478515625,2.509765625q0,0.3515625-0.478515625,0.439453125t-0.673828125,0.087890625q-0.3515625,0-0.673828125-0.05859375t-0.478515625-0.46875q-0.2734375-0.76171875-0.576171875-1.6015625t-0.7421875-1.533203125t-1.083984375-1.142578125q-0.5859375-0.390625-1.484375-0.390625l-0.15625,0q-1.640625,0.0390625-2.44140625,1.171875t-1.103515625,2.75390625t-0.302734375,3.4375l0,3.22265625q0,0.80078125,0.05859375,2.32421875t0.283203125,3.3203125t0.5859375,3.662109375t0.9765625,3.3984375t1.474609375,2.5t2.0703125,0.966796875q1.07421875,0,1.875-0.7421875t1.376953125-1.904296875t0.9765625-2.59765625t0.6640625-2.880859375t0.400390625-2.685546875t0.21484375-2.041015625q-0.21484375-0.01953125-0.41015625-0.01953125q-0.91796875,0-1.796875,0.29296875q-1.11328125,0.33203125-2.2265625,0.33203125q-0.15625,0-0.419921875-0.01953125t-0.498046875-0.09765625t-0.419921875-0.224609375t-0.185546875-0.380859375q0-0.44921875,0.986328125-0.76171875t2.24609375-0.537109375t2.431640625-0.322265625t1.54296875-0.09765625q0.1953125,0,0.556640625,0.0390625t0.72265625,0.13671875t0.615234375,0.283203125t0.25390625,0.458984375q0,0.234375-0.17578125,0.419921875t-0.439453125,0.283203125t-0.537109375,0.13671875t-0.4296875,0.0390625q0.01953125,0.44921875,0.01953125,0.91796875q0,1.0546875-0.05859375,2.24609375q-0.09765625,1.71875-0.390625,3.4375t-0.8984375,3.33984375t-1.54296875,2.861328125t-2.314453125,2.001953125t-3.271484375,0.76171875q-2.0703125,0-3.49609375-0.87890625t-2.32421875-2.34375t-1.396484375-3.3203125t-0.712890625-3.798828125t-0.263671875-3.779296875t-0.048828125-3.3203125z M38.5482421875,53.359375q0-1.2890625,0.107421875-2.822265625t0.380859375-3.076171875t0.8203125-2.978515625t1.40625-2.55859375t2.099609375-1.787109375t2.958984375-0.6640625q1.3671875,0,2.51953125,0.52734375t2.01171875,1.42578125t1.337890625,2.099609375t0.478515625,2.509765625q0,0.3515625-0.478515625,0.439453125t-0.673828125,0.087890625q-0.3515625,0-0.673828125-0.05859375t-0.478515625-0.46875q-0.2734375-0.76171875-0.576171875-1.6015625t-0.7421875-1.533203125t-1.083984375-1.142578125q-0.5859375-0.390625-1.484375-0.390625l-0.15625,0q-1.640625,0.0390625-2.44140625,1.171875t-1.103515625,2.75390625t-0.302734375,3.4375l0,3.22265625q0,0.80078125,0.05859375,2.32421875t0.283203125,3.3203125t0.5859375,3.662109375t0.9765625,3.3984375t1.474609375,2.5t2.0703125,0.966796875q1.07421875,0,1.875-0.7421875t1.376953125-1.904296875t0.9765625-2.59765625t0.6640625-2.880859375t0.400390625-2.685546875t0.21484375-2.041015625q-0.21484375-0.01953125-0.41015625-0.01953125q-0.91796875,0-1.796875,0.29296875q-1.11328125,0.33203125-2.2265625,0.33203125q-0.15625,0-0.419921875-0.01953125t-0.498046875-0.09765625t-0.419921875-0.224609375t-0.185546875-0.380859375q0-0.44921875,0.986328125-0.76171875t2.24609375-0.537109375t2.431640625-0.322265625t1.54296875-0.09765625q0.1953125,0,0.556640625,0.0390625t0.72265625,0.13671875t0.615234375,0.283203125t0.25390625,0.458984375q0,0.234375-0.17578125,0.419921875t-0.439453125,0.283203125t-0.537109375,0.13671875t-0.4296875,0.0390625q0.01953125,0.44921875,0.01953125,0.91796875q0,1.0546875-0.05859375,2.24609375q-0.09765625,1.71875-0.390625,3.4375t-0.8984375,3.33984375t-1.54296875,2.861328125t-2.314453125,2.001953125t-3.271484375,0.76171875q-2.0703125,0-3.49609375-0.87890625t-2.32421875-2.34375t-1.396484375-3.3203125t-0.712890625-3.798828125t-0.263671875-3.779296875t-0.048828125-3.3203125z M68.4376953125,66.2890625q0-0.68359375,0.46875-0.869140625t1.015625-0.185546875q0.95703125,0,1.62109375,0.859375t1.259765625,1.884765625t1.181640625,1.884765625t1.38671875,0.859375q0.60546875,0,1.103515625-0.302734375t0.859375-0.76171875t0.556640625-1.03515625t0.1953125-1.142578125q0-1.484375-0.595703125-3.06640625t-1.5234375-3.26171875t-1.962890625-3.4375t-1.953125-3.57421875t-1.5234375-3.701171875t-0.60546875-3.798828125q0-2.87109375,1.71875-4.453125t4.53125-1.58203125q0.95703125,0,1.93359375,0.2734375t1.796875,0.8203125t1.337890625,1.34765625t0.517578125,1.875q0,0.3515625-0.517578125,0.458984375t-0.751953125,0.107421875q-0.3515625,0-0.76171875-0.087890625t-0.52734375-0.478515625t-0.33203125-0.8984375t-0.537109375-0.947265625t-0.76171875-0.76171875t-0.966796875-0.322265625q-0.87890625,0-1.494140625,0.361328125t-0.99609375,0.966796875t-0.56640625,1.357421875t-0.185546875,1.552734375q0,1.875,0.64453125,3.779296875t1.6015625,3.7890625t2.080078125,3.720703125t2.080078125,3.57421875t1.6015625,3.3984375t0.64453125,3.14453125q0,1.328125-0.625,2.24609375t-1.58203125,1.494140625t-2.119140625,0.83984375t-2.275390625,0.263671875q-1.19140625,0-2.44140625-0.478515625t-2.24609375-1.318359375t-1.640625-1.962890625t-0.64453125-2.431640625z M85.20859375,50.3125q0-0.2734375,0.5859375-0.46875t1.328125-0.322265625t1.435546875-0.185546875t0.947265625-0.09765625q0-0.52734375,0.0390625-1.064453125t0.21484375-0.95703125t0.556640625-0.673828125t1.064453125-0.25390625q0.56640625,0,0.859375,0.13671875t0.625,0.56640625q0.078125,0.234375,0.078125,0.44921875l0,0.654296875t-0.0390625,0.673828125q0.72265625-0.078125,1.435546875-0.185546875t1.435546875-0.107421875q0.52734375,0,0.72265625,0.01953125t0.390625,0.46875q0.15625,0.44921875-0.380859375,0.68359375t-1.2890625,0.3515625t-1.494140625,0.17578125t-0.8984375,0.05859375q-0.234375,3.359375-0.478515625,6.66015625t-0.244140625,6.69921875q0,1.5234375,0.09765625,3.14453125t0.546875,3.06640625q0.1171875,0.44921875,0.390625,0.83984375t0.2734375,0.83984375q0,0.2734375-0.21484375,0.4296875t-0.517578125,0.263671875t-0.60546875,0.126953125t-0.498046875,0.01953125q-1.23046875,0-1.875-0.91796875t-0.927734375-2.197265625t-0.302734375-2.626953125t-0.01953125-2.1875q0-1.71875,0.068359375-3.515625t0.166015625-3.5546875t0.2734375-3.4375t0.41015625-3.125q-0.68359375,0.078125-1.337890625,0.17578125t-1.337890625,0.09765625q-0.15625,0-0.419921875-0.01953125t-0.498046875-0.09765625t-0.400390625-0.21484375t-0.166015625-0.390625z M99.7529296875,63.0859375q0-1.11328125,0.283203125-2.294921875t0.8984375-2.12890625t1.552734375-1.54296875t2.265625-0.595703125q0.99609375,0,2.099609375,0.341796875t2.021484375,0.9765625t1.494140625,1.552734375t0.576171875,2.05078125q0,1.3671875-0.498046875,2.59765625t-1.396484375,2.197265625t-2.099609375,1.5234375t-2.607421875,0.556640625q-1.15234375,0-2.01171875-0.419921875t-1.435546875-1.123046875t-0.859375-1.66015625t-0.283203125-2.03125z M102.6240234375,63.046875q0,0.3515625,0.107421875,1.03515625t0.322265625,1.337890625t0.556640625,1.1328125t0.830078125,0.439453125q1.03515625-0.1171875,1.708984375-0.673828125t1.09375-1.357421875t0.5859375-1.73828125t0.166015625-1.77734375q0-1.07421875-0.419921875-1.796875t-1.376953125-1.171875q0,0.0390625,0.0390625,0.0390625t0.0390625-0.0390625l-0.48828125-0.1171875q-0.1953125-0.078125-0.478515625-0.17578125t-0.556640625-0.4296875q-0.76171875,0.2734375-1.181640625,0.703125t-0.634765625,1.044921875t-0.263671875,1.474609375t-0.048828125,2.0703125z M114.551171875,57.24609375q0-0.80078125,0.283203125-1.34765625t1.201171875-0.546875q0.3515625,0,0.87890625,0.107421875t0.60546875,0.537109375q0.1953125,1.15234375,0.21484375,2.5t0.13671875,2.5390625q0.44921875-0.87890625,1.15234375-1.89453125t1.6015625-1.875t1.953125-1.42578125t2.1484375-0.56640625q0.078125,0,0.29296875,0.05859375t0.400390625,0.166015625t0.224609375,0.244140625t-0.21484375,0.25390625q-0.078125,0.234375-0.33203125,0.283203125t-0.44921875,0.048828125q-0.1171875,0-0.37109375-0.09765625q-1.4453125,0.76171875-2.4609375,2.0703125t-1.66015625,2.900390625t-0.9375,3.359375t-0.29296875,3.447265625q0,0.83984375-0.380859375,1.015625t-1.220703125,0.17578125q-0.44921875,0-0.947265625-0.09765625t-0.693359375-0.625q-0.3515625-1.11328125-0.576171875-2.55859375t-0.341796875-2.978515625t-0.166015625-3.017578125t-0.048828125-2.67578125z M128.4314453125,63.515625q0-1.3671875,0.302734375-3.22265625t1.025390625-3.515625t1.904296875-2.822265625t2.978515625-1.162109375q1.6796875,0,2.51953125,0.966796875t0.83984375,2.607421875q0,1.07421875-0.400390625,2.353515625t-1.142578125,2.421875t-1.7578125,1.904296875t-2.265625,0.76171875l-0.5078125-0.0390625q0,0.52734375,0.15625,1.416015625t0.458984375,1.767578125t0.78125,1.54296875t1.162109375,0.6640625q0.99609375,0,1.9140625-0.80078125t1.73828125-1.77734375t1.5234375-1.77734375t1.2890625-0.80078125q0.3125,0,0.64453125,0.09765625t0.37109375,0.546875q0,0.2734375-0.146484375,0.44921875t-0.263671875,0.390625q-0.60546875,1.03515625-1.318359375,1.97265625t-1.611328125,1.69921875t-1.962890625,1.201171875t-2.353515625,0.439453125q-1.6796875,0-2.79296875-0.595703125t-1.796875-1.6015625t-0.986328125-2.32421875t-0.302734375-2.763671875z M131.9275390625,62.03125l0.546875,0.48828125q0.390625,0.3515625,0.78125,0.15625t0.703125-0.712890625t0.576171875-1.279296875t0.46875-1.5625t0.302734375-1.5625t0.09765625-1.26953125l0-0.6640625t-0.05859375-0.703125t-0.205078125-0.556640625t-0.458984375-0.283203125q-0.09765625-0.01953125-0.17578125-0.01953125q-0.6640625,0-1.1328125,0.83984375q-0.5078125,0.9375-0.8203125,2.275390625t-0.44921875,2.744140625t-0.17578125,2.109375z"/><path fill="#" d=""/></svg>
